<svg xmlns="http://www.w3.org/2000/svg" viewBox="0 0 400 400" width="400" height="400">
<rect width="400" height="400" fill="#f0d9b5"/>
<rect x="0" y="0" width="50" height="50" fill="#b58863"/>
<rect x="100" y="0" width="50" height="50" fill="#b58863"/>
<rect x="200" y="0" width="50" height="50" fill="#b58863"/>
<rect x="300" y="0" width="50" height="50" fill="#b58863"/>
<rect x="50" y="50" width="50" height="50" fill="#b58863"/>
<rect x="150" y="50" width="50" height="50" fill="#b58863"/>
<rect x="250" y="50" width="50" height="50" fill="#b58863"/>
<rect x="350" y="50" width="50" height="50" fill="#b58863"/>
<rect x="0" y="100" width="50" height="50" fill="#b58863"/>
<rect x="100" y="100" width="50" height="50" fill="#b58863"/>
<rect x="200" y="100" width="50" height="50" fill="#b58863"/>
<rect x="300" y="100" width="50" height="50" fill="#b58863"/>
<rect x="50" y="150" width="50" height="50" fill="#b58863"/>
<rect x="150" y="150" width="50" height="50" fill="#b58863"/>
<rect x="250" y="150" width="50" height="50" fill="#b58863"/>
<rect x="350" y="150" width="50" height="50" fill="#b58863"/>
<rect x="0" y="200" width="50" height="50" fill="#b58863"/>
<rect x="100" y="200" width="50" height="50" fill="#b58863"/>
<rect x="200" y="200" width="50" height="50" fill="#b58863"/>
<rect x="300" y="200" width="50" height="50" fill="#b58863"/>
<rect x="50" y="250" width="50" height="50" fill="#b58863"/>
<rect x="150" y="250" width="50" height="50" fill="#b58863"/>
<rect x="250" y="250" width="50" height="50" fill="#b58863"/>
<rect x="350" y="250" width="50" height="50" fill="#b58863"/>
<rect x="0" y="300" width="50" height="50" fill="#b58863"/>
<rect x="100" y="300" width="50" height="50" fill="#b58863"/>
<rect x="200" y="300" width="50" height="50" fill="#b58863"/>
<rect x="300" y="300" width="50" height="50" fill="#b58863"/>
<rect x="50" y="350" width="50" height="50" fill="#b58863"/>
<rect x="150" y="350" width="50" height="50" fill="#b58863"/>
<rect x="250" y="350" width="50" height="50" fill="#b58863"/>
<rect x="350" y="350" width="50" height="50" fill="#b58863"/>
<text x="150" y="35" font-size="24" text-anchor="middle" fill="#fff">♜♞♝♛♚♝♞♜</text>
<text x="150" y="85" font-size="24" text-anchor="middle" fill="#fff">♟♟♟♟♟♟♟♟</text>
<text x="150" y="235" font-size="24" text-anchor="middle" fill="#000">♙♙♙♙♙♙♙♙</text>
<text x="150" y="285" font-size="24" text-anchor="middle" fill="#000">♖♘♗♕♔♗♘♖</text>
</svg>